<svg xmlns:xlink="http://www.w3.org/1999/xlink" xmlns="http://www.w3.org/2000/svg" width="200" height="200" style="overflow: visible;" viewBox="0 0 512 512" x="0" y="0"><rect fill="#FFFFFF" x="0" y="0" width="100%" height="100%"></rect><path text="Selab" fill="#333747" space="preserve" text-anchor="start" offset="0" font-scale="contain" font-size="48" font-family="Ubuntu" transform="matrix(1.3158235549926758, 0, 0, 1.3158235549926758, 205.51174926757812, 226.50064086914062)" data-fl-textpath="" font-weight="700" font-style="normal" d="M 12.91-5.71L 12.91-5.71Q 14.5-5.71  15.53-5.98Q 16.56-6.24  17.18-6.7Q 17.81-7.15  18.05-7.78Q 18.29-8.4  18.29-9.17L 18.29-9.17Q 18.29-10.8  16.75-11.88Q 15.22-12.96  11.47-14.21L 11.47-14.21Q 9.84-14.78  8.21-15.53Q 6.58-16.27  5.28-17.4Q 3.98-18.53  3.17-20.14Q 2.35-21.74  2.35-24.05L 2.35-24.05Q 2.35-26.35  3.22-28.2Q 4.08-30.05  5.66-31.34Q 7.25-32.64  9.5-33.34Q 11.76-34.03  14.59-34.03L 14.59-34.03Q 17.95-34.03  20.4-33.31Q 22.85-32.59  24.43-31.73L 24.43-31.73L 22.27-25.82Q 20.88-26.54  19.18-27.1Q 17.47-27.65  15.07-27.65L 15.07-27.65Q 12.38-27.65  11.21-26.9Q 10.03-26.16  10.03-24.62L 10.03-24.62Q 10.03-23.71  10.46-23.09Q 10.9-22.46  11.69-21.96Q 12.48-21.46  13.51-21.05Q 14.54-20.64  15.79-20.21L 15.79-20.21Q 18.38-19.25  20.3-18.31Q 22.22-17.38  23.5-16.13Q 24.77-14.88  25.39-13.2Q 26.02-11.52  26.02-9.12L 26.02-9.12Q 26.02-4.46  22.75-1.9Q 19.49 0.67  12.91 0.67L 12.91 0.67Q 10.7 0.67  8.93 0.41Q 7.15 0.14  5.78-0.24Q 4.42-0.62  3.43-1.06Q 2.45-1.49  1.78-1.87L 1.78-1.87L 3.89-7.82Q 5.38-7.01  7.56-6.36Q 9.74-5.71  12.91-5.71ZM 30.096-12.43L 30.096-12.43Q 30.096-15.79  31.126-18.31Q 32.156-20.83  33.836-22.51Q 35.516-24.19  37.706-25.06Q 39.885999999999996-25.92  42.196-25.92L 42.196-25.92Q 47.566-25.92  50.686-22.63Q 53.806-19.34  53.806-12.96L 53.806-12.96Q 53.806-12.34  53.756-11.59Q 53.716-10.85  53.666-10.27L 53.666-10.27L 37.436-10.27Q 37.676-8.06  39.506-6.77Q 41.326-5.47  44.396-5.47L 44.396-5.47Q 46.366-5.47  48.266-5.83Q 50.156-6.19  51.356-6.72L 51.356-6.72L 52.316-0.91Q 51.745999999999995-0.62  50.786-0.34Q 49.826-0.05  48.646 0.17Q 47.476 0.38  46.126000000000005 0.53Q 44.786 0.67  43.436 0.67L 43.436 0.67Q 40.036 0.67  37.516-0.34Q 34.996-1.34  33.336-3.1Q 31.676000000000002-4.85  30.886-7.25Q 30.096-9.65  30.096-12.43ZM 37.436-15.17L 46.896-15.17Q 46.846000000000004-16.08  46.586-16.94Q 46.316-17.81  45.766-18.48Q 45.216-19.15  44.376000000000005-19.58Q 43.536-20.02  42.286-20.02L 42.286-20.02Q 41.086-20.02  40.226-19.61Q 39.356-19.2  38.786-18.53Q 38.206-17.86  37.896-16.97Q 37.586-16.08  37.436-15.17L 37.436-15.17ZM 70.418-5.42L 69.408 0.48Q 66.28800000000001 0.43  64.348-0.19Q 62.398-0.82  61.268-1.94Q 60.148-3.07  59.73800000000001-4.68Q 59.328-6.29  59.328-8.3L 59.328-8.3L 59.328-36.1L 66.47800000000001-37.25L 66.47800000000001-9.74Q 66.47800000000001-8.78  66.628-8.02Q 66.768-7.25  67.178-6.72Q 67.58800000000001-6.19  68.348-5.86Q 69.11800000000001-5.52  70.418-5.42L 70.418-5.42ZM 84.86600000000001-4.99L 84.86600000000001-4.99Q 85.91600000000001-4.99  86.876-5.04Q 87.83600000000001-5.09  88.41600000000001-5.18L 88.41600000000001-5.18L 88.41600000000001-10.61Q 87.986-10.7  87.11600000000001-10.8Q 86.25600000000001-10.9  85.536-10.9L 85.536-10.9Q 84.52600000000001-10.9  83.63600000000001-10.78Q 82.75600000000001-10.66  82.07600000000001-10.32Q 81.406-9.98  81.02600000000001-9.41Q 80.63600000000001-8.83  80.63600000000001-7.97L 80.63600000000001-7.97Q 80.63600000000001-6.29  81.766-5.64Q 82.89600000000002-4.99  84.86600000000001-4.99ZM 84.286-25.92L 84.286-25.92Q 87.456-25.92  89.566-25.2Q 91.67600000000002-24.48  92.95600000000002-23.14Q 94.22600000000001-21.79  94.756-19.87Q 95.27600000000001-17.95  95.27600000000001-15.6L 95.27600000000001-15.6L 95.27600000000001-0.72Q 93.74600000000001-0.38  91.006 0.07Q 88.27600000000001 0.53  84.38600000000001 0.53L 84.38600000000001 0.53Q 81.936 0.53  79.94600000000001 0.1Q 77.956-0.34  76.516-1.32Q 75.07600000000001-2.3  74.30600000000001-3.89Q 73.53600000000002-5.47  73.53600000000002-7.78L 73.53600000000002-7.78Q 73.53600000000002-9.98  74.426-11.52Q 75.316-13.06  76.796-13.97Q 78.286-14.88  80.206-15.29Q 82.126-15.7  84.19600000000001-15.7L 84.19600000000001-15.7Q 85.58600000000001-15.7  86.66600000000001-15.58Q 87.74600000000001-15.46  88.41600000000001-15.26L 88.41600000000001-15.26L 88.41600000000001-15.94Q 88.41600000000001-17.76  87.316-18.86Q 86.206-19.97  83.47600000000001-19.97L 83.47600000000001-19.97Q 81.64600000000002-19.97  79.876-19.7Q 78.096-19.44  76.796-18.96L 76.796-18.96L 75.88600000000001-24.72Q 76.516-24.91  77.44600000000001-25.13Q 78.38600000000001-25.34  79.486-25.51Q 80.596-25.68  81.816-25.8Q 83.036-25.92  84.286-25.92ZM 117.94-12.82L 117.94-12.82Q 117.94-19.73  112.85000000000001-19.73L 112.85000000000001-19.73Q 111.74000000000001-19.73  110.66000000000001-19.44Q 109.58000000000001-19.15  108.91000000000001-18.72L 108.91000000000001-18.72L 108.91000000000001-5.71Q 109.44-5.62  110.26-5.54Q 111.07000000000001-5.47  112.03-5.47L 112.03-5.47Q 114.96000000000001-5.47  116.45-7.49Q 117.94-9.5  117.94-12.82ZM 125.23-12.62L 125.23-12.62Q 125.23-9.6  124.34-7.15Q 123.46000000000001-4.7  121.78-2.98Q 120.10000000000001-1.25  117.65-0.31Q 115.2 0.62  112.08000000000001 0.62L 112.08000000000001 0.62Q 110.78 0.62  109.37 0.5Q 107.95 0.38  106.58000000000001 0.19Q 105.22 0  103.97-0.26Q 102.72-0.53  101.76-0.82L 101.76-0.82L 101.76-36.1L 108.91000000000001-37.25L 108.91000000000001-24.67Q 110.11000000000001-25.2  111.41000000000001-25.49Q 112.7-25.78  114.19-25.78L 114.19-25.78Q 116.88000000000001-25.78  118.94-24.84Q 121.01-23.9  122.4-22.18Q 123.79-20.45  124.51-18.02Q 125.23-15.6  125.23-12.62Z"></path><g transform="matrix(0.8543936610221863, 0, 0, 0.8543936610221863, 6.9891037940979, 44.9332275390625)"><g transform="matrix(1.953158974647522, 0, 0, 1.953158974647522, 27.580556869506836, 124.99699401855469)" fill="#333747"><path d="M53.6,15.2c-1-4.4,2.8-8.2,7.2-7.2c2.2,0.5,4,2.3,4.5,4.5c1,4.4-2.8,8.2-7.2,7.2C55.9,19.2,54.1,17.4,53.6,15.2z M77.2,71.3  c-3.4-0.5-6.2,2.4-5.7,5.7c0.3,2.1,2,3.8,4.1,4.1c3.4,0.5,6.2-2.4,5.7-5.7C81.1,73.4,79.3,71.6,77.2,71.3z M50.2,42.5  c-4.1,0-7.5,3.4-7.5,7.5s3.4,7.5,7.5,7.5s7.5-3.4,7.5-7.5S54.3,42.5,50.2,42.5z M81,50c7.4,8.3,10.5,16.5,7.3,22  c-1,1.8-2.7,3.2-4.8,4.2c0-1.1-0.3-2.1-0.7-3c1.3-0.7,2.3-1.6,3-2.7c2.5-4.3-0.4-11.1-6.7-18.3c-2.9,3-6.3,5.9-10,8.6  c-0.5,4.7-1.3,9.1-2.4,13c1.1,0.2,2.2,0.4,3.2,0.6c-0.2,0.6-0.3,1.2-0.3,1.9c0,0.4,0,0.8,0.1,1.1c-1.3-0.2-2.6-0.4-3.9-0.7  C62.1,87.3,56.6,94,50.2,94c-6.4,0-11.9-6.7-15.4-17.3c-1.4,0.3-2.8,0.5-4.1,0.7c-1.8,0.2-3.5,0.3-5.1,0.3c-6.6,0-11.3-2-13.5-5.7  c-1.2-2.1-1.5-4.6-1-7.3c0.8,0.6,1.8,1,2.9,1c-0.2,1.8,0,3.5,0.8,4.8c2,3.5,7.7,4.9,15.6,3.9c1.2-0.2,2.4-0.4,3.6-0.6  c-1.1-3.9-1.9-8.3-2.4-13c-3.8-2.7-7.1-5.6-10.1-8.6c-0.8,0.9-1.6,1.9-2.3,2.8c-0.1,0.2-0.2,0.3-0.4,0.5c-0.6-0.6-1.3-1-2-1.3  c-0.1-0.3-0.1-0.4-0.2-0.7c0.9-1.2,1.8-2.3,2.8-3.5c-1-1.1-1.9-2.1-2.7-3.2C11,39.3,9.4,32.7,12.1,28c2.7-4.7,9.3-6.6,18.6-5.4  c1.3,0.2,2.7,0.4,4.1,0.7C38.2,12.7,43.8,6,50.2,6c1.6,0,3.2,0.4,4.7,1.3c-0.9,0.6-1.6,1.4-2.2,2.2C51.9,9.2,51,9,50.2,9  c-4.9,0-9.5,5.9-12.5,15c4,1,8.2,2.5,12.5,4.4c4.2-1.9,8.5-3.4,12.5-4.4c-0.3-0.8-0.6-1.7-0.9-2.5c1-0.3,1.9-0.8,2.7-1.4  c0.4,1,0.8,2.1,1.2,3.2c1.4-0.3,2.8-0.5,4.1-0.7c9.3-1.2,15.9,0.7,18.6,5.4c2.7,4.7,1.1,11.3-4.6,18.8C82.9,47.8,82,48.9,81,50z   M66.5,26.2c1.1,3.9,1.9,8.3,2.4,13c3.8,2.8,7.2,5.7,10.1,8.6c0.8-0.9,1.6-1.9,2.3-2.8c4.8-6.3,6.4-12,4.4-15.5  c-1.6-2.8-5.5-4.2-10.9-4.2c-1.4,0-3,0.1-4.7,0.3C68.9,25.7,67.7,25.9,66.5,26.2z M53.8,30.1c2,1,4,2.1,6,3.2c2,1.2,3.9,2.3,5.7,3.6  c-0.5-3.6-1.2-6.9-2-10C60.4,27.7,57.1,28.7,53.8,30.1z M66,40.8c-2.4-1.7-5-3.4-7.7-5c-2.7-1.6-5.4-3-8.1-4.2  c-2.7,1.2-5.4,2.7-8.1,4.2c-2.7,1.6-5.3,3.2-7.7,4.9c-0.3,3-0.4,6-0.4,9.2c0,3.1,0.2,6.2,0.4,9.2c2.4,1.7,5,3.4,7.7,4.9  c2.7,1.6,5.4,3,8.1,4.2c2.7-1.2,5.4-2.7,8.1-4.2c2.7-1.6,5.3-3.2,7.7-4.9c0.3-3,0.4-6,0.4-9.2C66.5,46.9,66.3,43.8,66,40.8z   M36.8,26.8c-0.9,3.1-1.5,6.4-2,10c1.8-1.2,3.8-2.4,5.7-3.6c2-1.1,4-2.2,6-3.2C43.2,28.7,40,27.6,36.8,26.8z M19.1,45  c0.7,0.9,1.5,1.9,2.3,2.8c2.9-3,6.3-5.9,10.1-8.6c0.5-4.7,1.3-9.1,2.4-13c-1.2-0.3-2.4-0.5-3.6-0.6c-1.7-0.2-3.2-0.3-4.7-0.3  c-5.4,0-9.3,1.5-10.9,4.2C12.6,33,14.2,38.6,19.1,45z M31.1,56.8c-0.1-2.2-0.2-4.5-0.2-6.8c0-2.3,0.1-4.6,0.2-6.8  c-2.8,2.2-5.4,4.5-7.7,6.8C25.7,52.3,28.3,54.6,31.1,56.8z M36.8,73.2c3.1-0.8,6.4-1.9,9.7-3.2c-2-1-4-2.1-6-3.2  c-2-1.1-3.9-2.3-5.7-3.6C35.3,66.7,36,70.1,36.8,73.2z M62.7,76c-4-1-8.2-2.5-12.5-4.4c-4.3,1.9-8.5,3.4-12.5,4.4  c3,9.1,7.5,15,12.5,15C55.1,91,59.6,85.1,62.7,76z M65.6,63.1c-1.8,1.2-3.8,2.4-5.7,3.6c-2,1.1-4,2.2-6,3.2c3.3,1.3,6.6,2.4,9.7,3.2  C64.4,70.1,65.1,66.7,65.6,63.1z M76.9,50c-2.2-2.3-4.8-4.6-7.7-6.8c0.1,2.2,0.2,4.5,0.2,6.8c0,2.3-0.1,4.6-0.2,6.8  C72.1,54.6,74.6,52.3,76.9,50z M13.8,63.7c2.7,0.4,5-1.9,4.6-4.6c-0.3-1.7-1.6-3.1-3.3-3.3c-2.7-0.4-5,1.9-4.6,4.6  C10.8,62.1,12.1,63.4,13.8,63.7z" transform="matrix(1, 0, 0, 1, 0, 0)" fill="#333747"></path></g><path transform="matrix(0.16042782366275787, 0, 0, 0.16042782366275787, 117.3463363647461, 214.6293182373047)" data-type="circle" data-cx="50" data-cy="50" data-r="50" d="M50,50m-50,0a50,50 0 1, 0 100,0a50,50 0 1, 0 -100,0" fill="#40BF8E"></path><path transform="matrix(0.08217416703701019, 0, 0, 0.08217416703701019, 172.4744415283203, 269.7574462890625)" fill="#40BF8E" data-type="circle" data-cx="50" data-cy="50" data-r="50" d="M50,50m-50,0a50,50 0 1, 0 100,0a50,50 0 1, 0 -100,0"></path><path transform="matrix(0.11053752154111862, 0, 0, 0.11053752154111862, 138.0159454345703, 146.51744079589844)" fill="#40BF8E" data-type="circle" data-cx="50" data-cy="50" data-r="50" d="M50,50m-50,0a50,50 0 1, 0 100,0a50,50 0 1, 0 -100,0"></path><path transform="matrix(0.06109251454472542, 0, 0, 0.06109251454472542, 52.60169982910156, 238.7217559814453)" fill="#40BF8E" data-type="circle" data-cx="50" data-cy="50" data-r="50" d="M50,50m-50,0a50,50 0 1, 0 100,0a50,50 0 1, 0 -100,0"></path></g></svg>