<svg xmlns:xlink="http://www.w3.org/1999/xlink" id="__tmb-1891" xmlns="http://www.w3.org/2000/svg" viewBox="0 0 512 512" style="opacity: 1; transition: opacity 0.3s ease 0s; overflow: visible;" width="512"  height="512" ><rect x="0" y="0" width="512" height="512" fill="none"></rect><svg xmlns="http://www.w3.org/2000/svg" width="512" height="512" style="overflow: visible;" x="0" y="0" viewBox="0 0 512 512"><rect x="0" y="0" width="100%" height="100%" fill="#AAE8C5" data-fl-background=""></rect><path transform="matrix(2.2823929766671438e-17, 0.3727430999279022, -0.37487831711769104, 2.295467393429157e-17, 348.47027587890625, 87.68953704833984)" data-type="polygon" d="M125 463.175L0 246.667L125 30.16L374.999 30.16L500 246.667L374.999 463.175Z" fill="#C9E0F4"></path><g transform="matrix(2.0903966426849365, 0, 0, 2.0903966426849365, 151.4791259765625, 76.82258605957031)" fill="#2F313C"><path d="M66.018,82.742l0.174-0.1c-0.064-0.033-0.121-0.071-0.174-0.12V82.742z" transform="matrix(1, 0, 0, 1, 0, 0)" fill="#2F313C"></path><path d="M52.426,46.137l3.178-1.896c0.234-0.141,0.428-0.481,0.428-0.755v-4.146c0-0.274-0.193-0.383-0.428-0.243l-3.178,1.897   c-0.234,0.141-0.428,0.48-0.428,0.755v4.146C51.998,46.168,52.191,46.278,52.426,46.137z" transform="matrix(1, 0, 0, 1, 0, 0)" fill="#2F313C"></path><path d="M52.426,55.803l3.178-1.897c0.234-0.141,0.428-0.48,0.428-0.755v-4.146c0-0.273-0.193-0.383-0.428-0.242l-3.178,1.898   c-0.234,0.14-0.428,0.479-0.428,0.753v4.147C51.998,55.834,52.191,55.943,52.426,55.803z" transform="matrix(1, 0, 0, 1, 0, 0)" fill="#2F313C"></path><path d="M52.426,65.469l3.178-1.898c0.234-0.14,0.428-0.479,0.428-0.754v-4.145c0-0.275-0.193-0.385-0.428-0.244l-3.178,1.898   c-0.234,0.141-0.428,0.479-0.428,0.753v4.146C51.998,65.499,52.191,65.609,52.426,65.469z" transform="matrix(1, 0, 0, 1, 0, 0)" fill="#2F313C"></path><path d="M52.426,75.135l3.178-1.898c0.234-0.141,0.428-0.479,0.428-0.753v-4.147c0-0.274-0.193-0.383-0.428-0.242l-3.178,1.897   c-0.234,0.141-0.428,0.48-0.428,0.754v4.146C51.998,75.165,52.191,75.275,52.426,75.135z" transform="matrix(1, 0, 0, 1, 0, 0)" fill="#2F313C"></path><path d="M26.135,72.448l3.175-1.896c0.235-0.142,0.428-0.48,0.428-0.755v-4.146c0-0.274-0.193-0.384-0.428-0.243l-3.175,1.897   c-0.235,0.141-0.428,0.48-0.428,0.754v4.146C25.708,72.481,25.9,72.59,26.135,72.448z" transform="matrix(1, 0, 0, 1, 0, 0)" fill="#2F313C"></path><path d="M55.604,82.902c0.234-0.141,0.428-0.481,0.428-0.755v-4.146c0-0.274-0.193-0.383-0.428-0.242l-3.178,1.896   c-0.234,0.141-0.428,0.481-0.428,0.755v4.146c0,0.275,0.193,0.383,0.428,0.242L55.604,82.902z" transform="matrix(1, 0, 0, 1, 0, 0)" fill="#2F313C"></path><path d="M81.783,53.818l-3.176,1.897c-0.236,0.142-0.428,0.48-0.428,0.756v4.146c0,0.273,0.191,0.383,0.428,0.241l3.176-1.897   c0.234-0.14,0.428-0.479,0.428-0.754v-4.146C82.211,53.787,82.018,53.678,81.783,53.818z" transform="matrix(1, 0, 0, 1, 0, 0)" fill="#2F313C"></path><path d="M81.783,63.484l-3.176,1.898c-0.236,0.14-0.428,0.479-0.428,0.754v4.146c0,0.273,0.191,0.382,0.428,0.242l3.176-1.897   c0.234-0.142,0.428-0.48,0.428-0.755v-4.146C82.211,63.453,82.018,63.343,81.783,63.484z" transform="matrix(1, 0, 0, 1, 0, 0)" fill="#2F313C"></path><path d="M87.037,22.986L55.094,4.543C53.688,3.732,51.881,3.285,50,3.285c-1.879,0-3.688,0.447-5.093,1.258L12.964,22.986   c-2.904,1.676-5.094,5.468-5.094,8.822v36.885c0,3.352,2.19,7.145,5.094,8.82l31.943,18.443c1.405,0.812,3.213,1.258,5.093,1.258   c1.881,0,3.688-0.446,5.094-1.258l31.943-18.443c2.902-1.676,5.094-5.469,5.094-8.82V31.808   C92.131,28.454,89.939,24.662,87.037,22.986z M33.953,82.725L15.955,72.333c-1.062-0.612-2.102-2.415-2.102-3.64V59.3l10.002-5.775   c0.029-0.002,0.065-0.002,0.094,0L33.953,59.3V82.725z M60.035,86.197l-7.598,4.386l-0.336,0.194   c-0.494,0.284-1.279,0.455-2.102,0.455c-0.822,0-1.607-0.171-2.102-0.455l-0.335-0.194l-7.628-4.403V35.184   c0.013-0.027,0.031-0.058,0.047-0.082l7.597-4.386l0.852-2.152l0.959-2.429c-0.86-0.261-1.487-1.06-1.487-2.006   c0-1.159,0.939-2.097,2.096-2.097c1.158,0,2.098,0.938,2.098,2.097c0,0.946-0.627,1.745-1.488,2.006l0.961,2.429l0.861,2.176   l7.557,4.363c0.018,0.024,0.035,0.055,0.047,0.082V86.197z M86.148,68.693c0,1.225-1.041,3.027-2.102,3.64l-17.855,10.31   l-0.174,0.1v-0.22V49.487l10.004-5.775c0.029-0.003,0.064-0.003,0.094,0l10.033,5.793V68.693z M86.148,42.598l-7.146-4.126   c-1.729-0.997-4.141-0.997-5.869,0l-7.115,4.108v-7.515c0-1.995-1.207-4.084-2.936-5.083l-5.463-3.155   c0.303-0.857,0.461-1.765,0.461-2.698c0-4.456-3.625-8.08-8.08-8.08s-8.079,3.624-8.079,8.08c0,0.927,0.156,1.83,0.457,2.683   l-5.49,3.169c-1.728,0.999-2.935,3.088-2.935,5.083v17.329l-7.116-4.108c-1.728-0.998-4.141-0.998-5.869,0l-7.116,4.108V31.808   c0-1.226,1.041-3.029,2.102-3.642L47.898,9.724c0.495-0.286,1.28-0.456,2.102-0.456c0.822,0,1.607,0.17,2.102,0.456l31.945,18.443   c1.061,0.613,2.102,2.416,2.102,3.642V42.598z" transform="matrix(1, 0, 0, 1, 0, 0)" fill="#2F313C"></path></g><path text="Selab" fill="#2F313C" space="preserve" text-anchor="middle" offset="0.5" font-scale="contain" font-size="48" font-family="Fredoka One" transform="matrix(1.7086502313613892, 0, 0, 1.7086502313613892, 255.58822631835938, 354.93011474609375)" data-fl-textpath="" font-weight="400" font-style="normal" d="M-61.224-4.42L-61.653999999999996-4.94Q-62.903999999999996-6.48 -62.903999999999996-7.7Q-62.903999999999996-8.93 -60.844-10.94L-60.844-10.94Q-59.644-12.1 -58.294-12.1Q-56.954-12.1 -54.554-9.7L-54.554-9.7Q-53.884-8.88 -52.634-8.14Q-51.384-7.39 -50.324-7.39L-50.324-7.39Q-45.864000000000004-7.39 -45.864000000000004-11.04L-45.864000000000004-11.04Q-45.864000000000004-12.14 -47.084-12.89Q-48.314-13.63 -50.134-13.97Q-51.964-14.3 -54.074-15.05Q-56.184-15.79 -58.004-16.8Q-59.834-17.81 -61.054-19.99Q-62.284-22.18 -62.284-25.25L-62.284-25.25Q-62.284-29.47 -59.134-32.62Q-55.994-35.76 -50.564-35.76L-50.564-35.76Q-47.684-35.76 -45.314-35.02Q-42.934-34.27 -42.024-33.5L-42.024-33.5L-40.824-32.59Q-39.334-31.2 -39.334-30.24Q-39.334-29.28 -40.483999999999995-27.6L-40.483999999999995-27.6Q-42.123999999999995-25.2 -43.843999999999994-25.2L-43.843999999999994-25.2Q-44.854-25.2 -46.343999999999994-26.16L-46.343999999999994-26.16Q-46.483999999999995-26.26 -46.894-26.64Q-47.304-27.02 -47.644-27.26L-47.644-27.26Q-48.644-27.89 -50.204-27.89Q-51.763999999999996-27.89 -52.804-27.14Q-53.834-26.4 -53.834-25.08Q-53.834-23.76 -52.604-22.94Q-51.384-22.13 -49.564-21.84Q-47.733999999999995-21.55 -45.574-20.95Q-43.414-20.35 -41.593999999999994-19.49Q-39.763999999999996-18.62 -38.544-16.49Q-37.324-14.35 -37.324-11.23Q-37.324-8.11 -38.564-5.74Q-39.814-3.36 -41.834-2.06L-41.834-2.06Q-45.724000000000004 0.48 -50.134 0.48L-50.134 0.48Q-52.394 0.48 -54.403999999999996-0.07Q-56.424-0.62 -57.674-1.44L-57.674-1.44Q-60.214-2.98 -61.224-4.42L-61.224-4.42ZM-9.819999999999997-15.67Q-9.819999999999997-12.72 -11.279999999999998-11.3Q-12.739999999999998-9.89 -14.519999999999996-9.89L-14.519999999999996-9.89L-25.9-9.89Q-25.9-8.54 -24.309999999999995-7.63Q-22.729999999999997-6.72 -21.139999999999997-6.72L-21.139999999999997-6.72Q-18.359999999999996-6.72 -16.779999999999998-7.3L-16.779999999999998-7.3L-16.249999999999996-7.49Q-15.099999999999998-8.02 -14.329999999999998-8.02L-14.329999999999998-8.02Q-12.79-8.02 -11.689999999999998-5.86L-11.689999999999998-5.86Q-11.059999999999999-4.56 -11.059999999999999-3.65L-11.059999999999999-3.65Q-11.059999999999999 0.62 -21.29 0.62L-21.29 0.62Q-24.839999999999996 0.62 -27.599999999999998-0.6Q-30.36-1.82 -31.9-3.84L-31.9-3.84Q-34.919999999999995-7.73 -34.919999999999995-12.53L-34.919999999999995-12.53Q-34.919999999999995-18.58 -31.009999999999998-22.2Q-27.099999999999998-25.82 -21.239999999999995-25.82L-21.239999999999995-25.82Q-14.569999999999997-25.82 -11.449999999999996-21.12L-11.449999999999996-21.12Q-9.819999999999997-18.62 -9.819999999999997-15.67ZM-25.989999999999995-14.26L-19.939999999999998-14.26Q-18.119999999999997-14.26 -18.119999999999997-15.79L-18.119999999999997-15.79Q-18.119999999999997-16.9 -18.959999999999997-17.57Q-19.799999999999997-18.24 -21.36-18.24Q-22.919999999999998-18.24 -24.459999999999997-16.97Q-25.989999999999995-15.7 -25.989999999999995-14.26L-25.989999999999995-14.26ZM-6.695999999999996-10.13L-6.695999999999996-32.98Q-6.695999999999996-34.08 -6.625999999999996-34.63Q-6.555999999999996-35.18 -6.215999999999996-35.9L-6.215999999999996-35.9Q-5.545999999999996-37.2 -2.4759999999999964-37.2L-2.4759999999999964-37.2Q 0.4540000000000042-37.2  1.174000000000003-35.9L 1.174000000000003-35.9Q 1.5640000000000036-35.18  1.634000000000004-34.61Q 1.7040000000000042-34.03  1.7040000000000042-32.93L 1.7040000000000042-32.93L 1.7040000000000042-10.7Q 1.7040000000000042-8.98  1.9940000000000033-8.52Q 2.2840000000000042-8.06  3.2640000000000047-8.06Q 4.244000000000003-8.06  4.584000000000003-7.99Q 4.924000000000003-7.92  5.4040000000000035-7.58L 5.4040000000000035-7.58Q 6.364000000000004-6.96  6.364000000000004-4.18L 6.364000000000004-4.18Q 6.364000000000004-1.15  5.4040000000000035-0.48L 5.4040000000000035-0.48Q 4.1540000000000035 0.38 -0.5559999999999956-0.19L-0.5559999999999956-0.19Q-4.245999999999996-0.67 -5.355999999999996-2.64L-5.355999999999996-2.64Q-6.695999999999996-4.99 -6.695999999999996-10.13L-6.695999999999996-10.13ZM 25.42-22.61L 25.42-22.61Q 25.700000000000003-25.3  29.21-25.3L 29.21-25.3Q 31.080000000000005-25.3  31.990000000000002-25.01Q 32.900000000000006-24.72  33.260000000000005-24Q 33.620000000000005-23.28  33.7-22.73Q 33.77-22.18  33.77-21.07L 33.77-21.07L 33.77-4.27Q 33.77-3.17  33.7-2.62Q 33.620000000000005-2.06  33.290000000000006-1.34L 33.290000000000006-1.34Q 32.620000000000005-0.1  30.000000000000007-0.1Q 27.380000000000003-0.1  26.500000000000007-0.74Q 25.610000000000007-1.39  25.46-2.64L 25.46-2.64Q 23.690000000000005-0.1  19.540000000000006-0.1Q 15.380000000000004-0.1  11.830000000000004-3.89Q 8.280000000000003-7.68  8.280000000000003-12.7Q 8.280000000000003-17.71  11.860000000000003-21.48Q 15.430000000000003-25.25  19.700000000000003-25.25L 19.700000000000003-25.25Q 21.340000000000003-25.25  22.680000000000003-24.67Q 24.020000000000003-24.1  24.550000000000004-23.59Q 25.080000000000005-23.09  25.42-22.61ZM 16.680000000000003-12.62Q 16.680000000000003-11.04  17.930000000000003-9.77Q 19.180000000000003-8.5  20.950000000000003-8.5Q 22.730000000000004-8.5  23.900000000000006-9.79Q 25.080000000000005-11.09  25.080000000000005-12.65Q 25.080000000000005-14.21  23.950000000000003-15.55Q 22.820000000000004-16.9  20.930000000000003-16.9Q 19.03-16.9  17.860000000000003-15.55Q 16.680000000000003-14.21  16.680000000000003-12.62ZM 51.478-25.25L 51.478-25.25Q 55.748000000000005-25.25  59.328-21.46Q 62.908-17.66  62.908-12.65Q 62.908-7.63  59.348-3.86Q 55.798-0.1  51.718-0.1Q 47.638000000000005-0.1  45.908-2.4L 45.908-2.4Q 45.528000000000006-0.05  41.788000000000004-0.05L 41.788000000000004-0.05Q 38.758-0.05  38.088-1.34L 38.088-1.34Q 37.748000000000005-2.06  37.678000000000004-2.62Q 37.608000000000004-3.17  37.608000000000004-4.27L 37.608000000000004-4.27L 37.608000000000004-32.93Q 37.608000000000004-34.03  37.678000000000004-34.58Q 37.748000000000005-35.14  38.088-35.81L 38.088-35.81Q 38.758-37.1  41.828-37.1L 41.828-37.1Q 44.858000000000004-37.1  45.478-35.81L 45.478-35.81Q 45.868-35.09  45.938-34.54Q 46.008-33.98  46.008-32.88L 46.008-32.88L 46.008-22.9Q 47.928000000000004-25.25  51.478-25.25ZM 47.278000000000006-9.74Q 48.458-8.45  50.228-8.45Q 52.008-8.45  53.258-9.74Q 54.508-11.04  54.508-12.62Q 54.508-14.21  53.348-15.53Q 52.19800000000001-16.85  50.278000000000006-16.85Q 48.358000000000004-16.85  47.228-15.5Q 46.108000000000004-14.16  46.108000000000004-12.6Q 46.108000000000004-11.04  47.278000000000006-9.74Z"></path></svg></svg>