<svg xmlns:xlink="http://www.w3.org/1999/xlink" id="__tmb-1485" xmlns="http://www.w3.org/2000/svg" viewBox="0 0 512 512" style="opacity: 1; transition: opacity 0.3s ease 0s; overflow: visible;" width="512"  height="512" ><rect x="0" y="0" width="512" height="512" fill="none"></rect><svg xmlns="http://www.w3.org/2000/svg" width="512" height="512" style="overflow: visible;" viewBox="0 0 512 512" data-svgdocument="" id="_uMfLESdKMIEf2tWt3Rkkj" class="fl-svgdocument" x="0" y="0" xmlns:inkscape="http://www.inkscape.org/namespaces/inkscape" xmlns:sodipodi="http://sodipodi.sourceforge.net/DTD/sodipodi-0.dtd" xmlns:xlink="http://www.w3.org/1999/xlink" xmlns:ns1="http://www.inkscape.org/namespaces/inkscape" xmlns:sketch="http://www.bohemiancoding.com/sketch/ns"><rect x="0" y="0" width="100%" height="100%" fill="#0E2634" data-fl-background=""></rect><defs id="_GFQ0OVOdyHRZHKKj5Ga3y" transform="matrix(1.2261029481887817, 0, 0, 1.2261029481887817, -58.85299301147461, -67.18187713623047)"></defs><g id="_aiuGpkob835VTHUJHb7uQ" transform="matrix(0.8094195127487183, 0, 0, 0.8094195127487183, 48.294227600097656, 47.458553314208984)"><path id="_fACB9NrgppsksNpAKL-1H" d="M51.736,33.487c-3.752,0.326-7.52-0.41-10.874-2.124c-0.506,1.176-1.136,2.295-1.877,3.339   c4.458,2.314,9.531,3.166,14.5,2.434C52.808,35.967,52.223,34.748,51.736,33.487z" fill="#ED7B7B" transform="matrix(2.647493600845337, 0, 0, 2.647493600845337, 124.59951782226562, 41.24636459350586)"></path><path id="_1XSAV2EIwFBLrz0obNwLp" d="M57.656,24.18c0-0.292-0.017-0.584-0.05-0.875c-2.192,1.698-4.891,2.614-7.664,2.601c-0.086,1.284-0.268,2.56-0.544,3.817   c3.001,0.111,5.975-0.612,8.59-2.088C57.768,26.497,57.656,25.34,57.656,24.18z" fill="#ED7B7B" transform="matrix(2.647493600845337, 0, 0, 2.647493600845337, 123.50655364990234, 41.39982604980469)"></path><path id="_y4F75-d5o4CZ-gZI4ReF_" d="M44.258,24.18c0,2.099-0.329,4.184-0.975,6.181c1.19,0.474,2.426,0.82,3.689,1.034c0.738-2.333,1.114-4.767,1.114-7.214   c0-0.919,0.653-1.708,1.557-1.88c1.038-0.197,2.04,0.484,2.238,1.523c1.272-0.232,2.491-0.696,3.596-1.371   c-0.955-3.024-4.18-4.702-7.205-3.748C45.882,19.458,44.258,21.674,44.258,24.18z" fill="#91979E" transform="matrix(2.647493600845337, 0, 0, 2.647493600845337, 123.8110122680664, 41.0491828918457)"></path><path id="_S6cQIm7NDeRn5c33D2znw" d="M38.189,17.853c1.166,0.541,2.259,1.227,3.253,2.041c1.623-3.239,4.935-5.285,8.557-5.285c5.285,0,9.57,4.285,9.57,9.571   c0,1.473,0.2,2.938,0.596,4.357c0.961-0.649,1.857-1.389,2.678-2.209c0.207-0.207,0.425-0.401,0.654-0.583   c-0.066-0.519-0.1-1.042-0.1-1.565c0-7.4-5.998-13.399-13.398-13.399C45.061,10.781,40.522,13.499,38.189,17.853z" fill="#ED7B7B" transform="matrix(2.647493600845337, 0, 0, 2.647493600845337, 122.73643493652344, 41.463233947753906)"></path><path id="_Yy3sRt9ET9PQJUM4o7zhY" d="M39.551,37.097c-2.422,2.883-5.607,5.027-9.19,6.186c0.474,1.19,0.82,2.426,1.034,3.689   c4.788-1.516,8.978-4.501,11.974-8.533C42.063,38.092,40.787,37.643,39.551,37.097z" fill="#91979E" transform="matrix(2.647493600845337, 0, 0, 2.647493600845337, 122.28026580810547, 43.274208068847656)"></path><path id="_1sH8kRh53h6meGE_r-Efo" d="M37.156,26.329c-0.207-0.207-0.425-0.401-0.654-0.583c-0.349,2.751-1.609,5.307-3.58,7.259   c0.847,0.969,1.621,2,2.314,3.084c2.201-2.043,3.793-4.657,4.598-7.55C38.873,27.889,37.977,27.149,37.156,26.329z" fill="#ED7B7B" transform="matrix(2.647493600845337, 0, 0, 2.647493600845337, 124.76632690429688, 40.23237228393555)"></path><path id="_kcvdDcPeNHMPF9TvNpfX8" d="M27.682,35.803c1.484,1.484,2.726,3.191,3.681,5.06c1.176-0.506,2.295-1.136,3.339-1.877   c-1.128-2.172-2.582-4.159-4.313-5.889c-0.65-0.65-0.746-1.67-0.229-2.43c0.595-0.874,1.785-1.101,2.659-0.506   c0.736-1.063,1.27-2.254,1.574-3.512c-2.813-1.464-6.281-0.37-7.745,2.444C25.492,31.315,25.91,34.031,27.682,35.803z" fill="#ED7B7B" transform="matrix(2.647493600845337, 0, 0, 2.647493600845337, 124.56004333496094, 42.208919525146484)"></path><path id="_zmXOV9Vlm8Tu8CNrhYOP4" d="M18.917,35.62c1.207-0.442,2.465-0.73,3.744-0.857c-1.143-3.438-0.248-7.226,2.314-9.787c3.738-3.738,9.797-3.738,13.535,0   c1.042,1.041,2.22,1.936,3.502,2.66c0.221-1.139,0.332-2.296,0.332-3.456c0-0.292,0.017-0.584,0.05-0.875   c-0.414-0.321-0.807-0.667-1.177-1.037c-5.232-5.233-13.716-5.233-18.948,0C18.775,25.761,17.488,30.892,18.917,35.62z" fill="#ED7B7B" transform="matrix(2.647493600845337, 0, 0, 2.647493600845337, 123.65037536621094, 39.974769592285156)"></path><path id="_nRFq-CRXC_qsijN7FiDum" d="M33.487,48.264c0.326,3.751-0.41,7.519-2.124,10.873c1.176,0.507,2.295,1.136,3.339,1.878   c2.314-4.458,3.166-9.531,2.434-14.5C35.967,47.192,34.748,47.777,33.487,48.264z" fill="#ED7B7B" transform="matrix(2.647493600845337, 0, 0, 2.647493600845337, 123.5987777709961, 40.844207763671875)"></path><path id="_GtMrKMYBFuZxkIqUaB82B" d="M24.18,42.344c-0.292,0-0.584,0.017-0.875,0.05c1.698,2.193,2.614,4.891,2.601,7.664c1.284,0.086,2.56,0.269,3.817,0.544   c0.111-3.001-0.612-5.974-2.088-8.59C26.497,42.232,25.34,42.344,24.18,42.344z" fill="#ED7B7B" transform="matrix(2.647493600845337, 0, 0, 2.647493600845337, 123.7523422241211, 42.175453186035156)"></path><path id="_Se1Eznnh9j1O3gH_arfr7" d="M24.18,55.742c2.099,0,4.184,0.329,6.181,0.975c0.474-1.189,0.82-2.426,1.034-3.688c-2.333-0.738-4.767-1.114-7.214-1.114   c-0.919,0-1.708-0.653-1.88-1.557c-0.197-1.038,0.484-2.041,1.523-2.238c-0.232-1.273-0.696-2.492-1.371-3.596   c-3.024,0.954-4.702,4.179-3.748,7.204C19.458,54.117,21.674,55.742,24.18,55.742z" fill="#91979E" transform="matrix(2.647493600845337, 0, 0, 2.647493600845337, 123.40168762207031, 40.820823669433594)"></path><path id="_rYwBYrNpAwOcBp9UnCJLE" d="M17.853,61.811c0.541-1.166,1.227-2.259,2.041-3.254c-3.239-1.622-5.285-4.934-5.285-8.557c0-5.286,4.285-9.57,9.571-9.57   c1.473,0,2.938-0.2,4.357-0.595c-0.649-0.961-1.389-1.858-2.209-2.678c-0.207-0.207-0.401-0.425-0.583-0.654   c-0.519,0.066-1.042,0.1-1.565,0.1c-7.4,0-13.399,5.999-13.399,13.398C10.781,54.939,13.499,59.479,17.853,61.811z" fill="#ED7B7B" transform="matrix(2.647493600845337, 0, 0, 2.647493600845337, 123.81626892089844, 42.199588775634766)"></path><path id="_SiQQyclBbaM3JNNYhJo84" d="M37.097,60.448c2.883,2.423,5.027,5.608,6.186,9.19c1.19-0.473,2.426-0.819,3.689-1.033   c-1.516-4.788-4.501-8.978-8.533-11.974C38.092,57.938,37.643,59.213,37.097,60.448z" fill="#91979E" transform="matrix(2.647493600845337, 0, 0, 2.647493600845337, 125.62679290771484, 41.86079788208008)"></path><path id="_GncUxpdKptzBXS-ACdsQN" d="M26.329,62.844c-0.207,0.207-0.401,0.425-0.583,0.654c2.751,0.35,5.307,1.609,7.259,3.58c0.969-0.848,2-1.621,3.084-2.314   c-2.043-2.201-4.657-3.793-7.55-4.598C27.889,61.127,27.149,62.023,26.329,62.844z" fill="#ED7B7B" transform="matrix(2.647493600845337, 0, 0, 2.647493600845337, 122.58478546142578, 41.7681884765625)"></path><path id="_gaOsq5LASKuQu4Cq4RLiW" d="M35.803,72.317c1.484-1.483,3.191-2.726,5.06-3.681c-0.506-1.176-1.136-2.295-1.877-3.339   c-2.172,1.128-4.158,2.582-5.889,4.313c-0.65,0.649-1.67,0.746-2.43,0.229c-0.874-0.595-1.101-1.785-0.506-2.659   c-1.063-0.736-2.254-1.27-3.512-1.573c-1.464,2.813-0.37,6.28,2.444,7.744C31.315,74.508,34.031,74.09,35.803,72.317z" fill="#ED7B7B" transform="matrix(2.647493600845337, 0, 0, 2.647493600845337, 124.56177520751953, 41.421363830566406)"></path><path id="_NRtsBLs1qUcF8a1AH_U_E" d="M35.62,81.083c-0.442-1.207-0.73-2.465-0.857-3.744c-3.438,1.144-7.226,0.247-9.788-2.313   c-3.737-3.738-3.737-9.798,0-13.535c1.042-1.041,1.937-2.22,2.661-3.502c-1.139-0.221-2.296-0.332-3.456-0.332   c-0.292,0-0.584-0.017-0.875-0.05c-0.321,0.413-0.667,0.807-1.037,1.177c-5.233,5.232-5.233,13.716,0,18.948   C25.761,81.225,30.892,82.512,35.62,81.083z" fill="#ED7B7B" transform="matrix(2.647493600845337, 0, 0, 2.647493600845337, 122.32727813720703, 40.600547790527344)"></path><path id="_AR6_kdHptNRS7B9mtSqJu" d="M48.264,66.513c3.751-0.326,7.519,0.41,10.873,2.124c0.507-1.176,1.136-2.295,1.878-3.339   c-4.458-2.314-9.531-3.166-14.5-2.434C47.192,64.033,47.777,65.252,48.264,66.513z" fill="#ED7B7B" transform="matrix(2.647493600845337, 0, 0, 2.647493600845337, 123.19679260253906, 40.59595489501953)"></path><path id="_3cW9cx9tYI-z97E6mHblY" d="M42.344,75.82c0,0.292,0.017,0.584,0.05,0.875c2.193-1.699,4.891-2.614,7.664-2.602c0.086-1.284,0.269-2.561,0.544-3.817   c-3.001-0.111-5.974,0.611-8.59,2.088C42.232,73.503,42.344,74.66,42.344,75.82z" fill="#ED7B7B" transform="matrix(2.647493600845337, 0, 0, 2.647493600845337, 124.52803039550781, 41.50638961791992)"></path><path id="_1-MfNQAQxINyapyvsXoT6" d="M55.742,75.82c0-2.1,0.329-4.185,0.975-6.182c-1.189-0.473-2.426-0.819-3.688-1.033c-0.738,2.334-1.114,4.767-1.114,7.215   c0,0.919-0.653,1.708-1.557,1.88c-1.038,0.197-2.041-0.484-2.238-1.522c-1.273,0.231-2.492,0.695-3.596,1.37   c0.954,3.024,4.179,4.702,7.204,3.748C54.117,80.542,55.742,78.326,55.742,75.82z" fill="#91979E" transform="matrix(2.647493600845337, 0, 0, 2.647493600845337, 123.17341613769531, 43.253421783447266)"></path><path id="_tx5CIgSVTNKDitQ_l-2WZ" d="M61.811,82.146c-1.166-0.541-2.259-1.227-3.254-2.041c-1.622,3.239-4.934,5.285-8.557,5.285c-5.286,0-9.57-4.285-9.57-9.57   c0-1.473-0.2-2.939-0.595-4.357c-0.961,0.648-1.858,1.389-2.678,2.208c-0.207,0.207-0.425,0.401-0.654,0.584   c0.066,0.519,0.1,1.042,0.1,1.565c0,7.399,5.999,13.398,13.398,13.398C54.939,89.219,59.479,86.501,61.811,82.146z" fill="#ED7B7B" transform="matrix(2.647493600845337, 0, 0, 2.647493600845337, 124.55219268798828, 42.30601501464844)"></path><path id="_fPiFWASofwGFEBUNYcpba" d="M60.449,62.903c2.422-2.883,5.607-5.026,9.189-6.187c-0.473-1.189-0.819-2.426-1.033-3.688   c-4.788,1.517-8.978,4.501-11.974,8.532C57.938,61.908,59.213,62.357,60.449,62.903z" fill="#91979E" transform="matrix(2.647493600845337, 0, 0, 2.647493600845337, 124.21338653564453, 40.80982971191406)"></path><path id="_QhxgC-5HvO91wAnrRYWT0" d="M62.844,73.671c0.207,0.207,0.425,0.401,0.654,0.584c0.35-2.752,1.609-5.307,3.58-7.259c-0.848-0.969-1.621-2-2.314-3.084   c-2.201,2.043-3.793,4.657-4.598,7.551C61.127,72.111,62.023,72.852,62.844,73.671z" fill="#ED7B7B" transform="matrix(2.647493600845337, 0, 0, 2.647493600845337, 124.12075805664062, 42.440643310546875)"></path><path id="_PdXt6Fvd7q-cKeu8edBCh" d="M72.317,64.197c-1.483-1.484-2.726-3.191-3.681-5.061c-1.176,0.507-2.295,1.136-3.339,1.878   c1.128,2.173,2.582,4.158,4.313,5.89c0.649,0.649,0.746,1.67,0.229,2.43c-0.595,0.874-1.785,1.101-2.659,0.506   c-0.736,1.063-1.27,2.254-1.573,3.512c2.813,1.464,6.28,0.369,7.744-2.443C74.508,68.685,74.09,65.969,72.317,64.197z" fill="#ED7B7B" transform="matrix(2.647493600845337, 0, 0, 2.647493600845337, 123.7739486694336, 41.848052978515625)"></path><path id="_P35xdtj5EQSn-pY4kvbd1" d="M81.083,64.38c-1.207,0.442-2.465,0.729-3.744,0.857c1.144,3.438,0.247,7.226-2.313,9.788   c-3.738,3.736-9.798,3.736-13.535,0c-1.041-1.042-2.22-1.938-3.502-2.661c-0.221,1.139-0.332,2.296-0.332,3.456   c0,0.292-0.017,0.584-0.05,0.875c0.413,0.32,0.807,0.666,1.177,1.036c5.232,5.232,13.716,5.232,18.948,0   C81.225,74.239,82.512,69.107,81.083,64.38z" fill="#ED7B7B" transform="matrix(2.647493600845337, 0, 0, 2.647493600845337, 122.95313262939453, 42.52531814575195)"></path><path id="_zsQezP-4GRt9QN9ofB0IM" d="M66.513,51.736c-0.326-3.752,0.41-7.52,2.124-10.874c-1.176-0.506-2.295-1.136-3.339-1.877   c-2.314,4.458-3.166,9.531-2.434,14.5C64.033,52.808,65.252,52.223,66.513,51.736z" fill="#ED7B7B" transform="matrix(2.647493600845337, 0, 0, 2.647493600845337, 122.94853973388672, 42.24694061279297)"></path><path id="_cvPHabGzPQQ_wN0_o3dGp" d="M75.82,57.656c0.292,0,0.584-0.017,0.875-0.05c-1.699-2.192-2.614-4.891-2.602-7.664c-1.284-0.086-2.561-0.268-3.817-0.544   c-0.111,3.001,0.611,5.975,2.088,8.59C73.503,57.768,74.66,57.656,75.82,57.656z" fill="#ED7B7B" transform="matrix(2.647493600845337, 0, 0, 2.647493600845337, 123.85899353027344, 41.15396499633789)"></path><path id="_vdl6KhYywv2j3TgjtCWCI" d="M75.82,44.258c-2.1,0-4.185-0.329-6.182-0.975c-0.473,1.19-0.819,2.426-1.033,3.689c2.334,0.738,4.767,1.114,7.215,1.114   c0.919,0,1.708,0.653,1.88,1.557c0.197,1.038-0.484,2.04-1.522,2.238c0.231,1.272,0.695,2.491,1.37,3.596   c3.024-0.955,4.702-4.18,3.748-7.205C80.542,45.882,78.326,44.258,75.82,44.258z" fill="#91979E" transform="matrix(2.647493600845337, 0, 0, 2.647493600845337, 125.60601043701172, 41.45842361450195)"></path><path id="_1R9F3Ow0EfvqDLpABCK8k" d="M82.146,38.189c-0.541,1.166-1.227,2.259-2.041,3.253c3.239,1.623,5.285,4.935,5.285,8.557c0,5.285-4.285,9.57-9.57,9.57   c-1.473,0-2.939,0.2-4.357,0.596c0.648,0.961,1.389,1.857,2.208,2.678c0.207,0.207,0.401,0.425,0.584,0.654   c0.519-0.066,1.042-0.1,1.565-0.1c7.399,0,13.398-5.998,13.398-13.398C89.219,45.061,86.501,40.522,82.146,38.189z" fill="#ED7B7B" transform="matrix(2.647493600845337, 0, 0, 2.647493600845337, 124.65860748291016, 40.383853912353516)"></path><path id="_bf8qOrk9tGQixANIc7ah3" d="M62.903,39.551c-2.883-2.422-5.026-5.607-6.187-9.19c-1.189,0.474-2.426,0.82-3.688,1.034   c1.517,4.788,4.501,8.978,8.532,11.974C61.908,42.063,62.357,40.787,62.903,39.551z" fill="#91979E" transform="matrix(2.647493600845337, 0, 0, 2.647493600845337, 123.16241455078125, 39.927955627441406)"></path><path id="_4XagiIcioWUsv--0f5JG1" d="M73.671,37.156c0.207-0.207,0.401-0.425,0.584-0.654c-2.752-0.349-5.307-1.609-7.259-3.58   c-0.969,0.847-2,1.621-3.084,2.314c2.043,2.201,4.657,3.793,7.551,4.598C72.111,38.873,72.852,37.977,73.671,37.156z" fill="#ED7B7B" transform="matrix(2.647493600845337, 0, 0, 2.647493600845337, 124.79324340820312, 42.41399002075195)"></path><path id="_sNR1ypVT2cXTH7vKAehYz" d="M64.197,27.682c-1.484,1.484-3.191,2.726-5.061,3.681c0.507,1.176,1.136,2.295,1.878,3.339   c2.173-1.128,4.158-2.582,5.89-4.313c0.649-0.65,1.67-0.746,2.43-0.229c0.874,0.595,1.101,1.785,0.506,2.659   c1.063,0.736,2.254,1.27,3.512,1.574c1.464-2.813,0.369-6.281-2.443-7.745C68.685,25.492,65.969,25.91,64.197,27.682z" fill="#ED7B7B" transform="matrix(2.647493600845337, 0, 0, 2.647493600845337, 124.20065307617188, 42.2076416015625)"></path><path id="_gIvt5bZnjuRTxGC4Bj_G0" d="M64.38,18.917c0.442,1.207,0.729,2.465,0.857,3.744c3.438-1.143,7.226-0.248,9.788,2.314c3.736,3.737,3.736,9.797,0,13.534   c-1.042,1.042-1.938,2.22-2.661,3.502c1.139,0.221,2.296,0.332,3.456,0.332c0.292,0,0.584,0.017,0.875,0.05   c0.32-0.414,0.666-0.807,1.036-1.177c5.232-5.232,5.232-13.716,0-18.948C74.239,18.775,69.107,17.488,64.38,18.917z" fill="#ED7B7B" transform="matrix(2.647493600845337, 0, 0, 2.647493600845337, 124.87792205810547, 41.298004150390625)"></path></g><path text="Selab" text-anchor="middle" font-size="100" letter-spacing="29" side="left" offset="0.5" dx="0" dy="0" space="preserve" href="" font-family="Gabriela" font-scale="contain" x="0" y="0" fill="#91979E" data-fl-textpath="" id="_onl9HWARE9MpLiXuJl4NZ" transform="matrix(0.6309722065925598, 0, 0, 0.6309722065925598, 255.68450927734375, 339.99188232421875)" d="M-158.65000000000003-4.2Q-152.85000000000002-4.2 -149.3-7.2Q-145.75000000000003-10.2 -145.75000000000003-15.5L-145.75000000000003-15.5Q-145.75000000000003-19.8 -147.95000000000002-22.8Q-150.15000000000003-25.8 -153.40000000000003-27.7Q-156.65000000000003-29.6 -162.25000000000003-32.1L-162.25000000000003-32.1Q-168.65000000000003-35 -172.50000000000003-37.4Q-176.35000000000002-39.8 -179.05-43.8Q-181.75000000000003-47.8 -181.75000000000003-53.8L-181.75000000000003-53.8Q-181.75000000000003-58.9 -179.3-63.35Q-176.85000000000002-67.8 -171.95000000000002-70.5Q-167.05-73.2 -159.95000000000002-73.2L-159.95000000000002-73.2Q-153.45000000000002-73.2 -148.3-71.35Q-143.15000000000003-69.5 -140.3-66.15Q-137.45000000000002-62.8 -137.45000000000002-58.5L-137.45000000000002-58.5Q-137.45000000000002-53.4 -140.50000000000003-50.1Q-143.55-46.8 -148.15000000000003-46.8L-148.15000000000003-46.8Q-150.25000000000003-46.8 -150.25000000000003-48L-150.25000000000003-48Q-150.25000000000003-48.3 -149.40000000000003-49.7Q-148.55-51.1 -147.90000000000003-52.85Q-147.25000000000003-54.6 -147.25000000000003-57.1L-147.25000000000003-57.1Q-147.25000000000003-61.8 -150.75000000000003-64.7Q-154.25000000000003-67.6 -159.95000000000002-67.6L-159.95000000000002-67.6Q-165.85000000000002-67.6 -169.05-64.25Q-172.25000000000003-60.9 -172.25000000000003-56.1L-172.25000000000003-56.1Q-172.25000000000003-52.4 -170.15000000000003-49.7Q-168.05-47 -164.95000000000002-45.2Q-161.85000000000002-43.4 -156.35000000000002-40.9L-156.35000000000002-40.9Q-149.75000000000003-38 -145.60000000000002-35.45Q-141.45000000000002-32.9 -138.55-28.65Q-135.65000000000003-24.4 -135.65000000000003-18.1L-135.65000000000003-18.1Q-135.65000000000003-9.2 -141.60000000000002-3.9Q-147.55 1.4 -158.65000000000003 1.4L-158.65000000000003 1.4Q-165.85000000000002 1.4 -171.45000000000002-0.65Q-177.05-2.7 -180.20000000000002-6.35Q-183.35000000000002-10 -183.35000000000002-14.7L-183.35000000000002-14.7Q-183.35000000000002-19.8 -180.10000000000002-23.1Q-176.85000000000002-26.4 -171.95000000000002-26.4L-171.95000000000002-26.4Q-170.85000000000002-26.4 -170.35000000000002-26.05Q-169.85000000000002-25.7 -169.85000000000002-25.2L-169.85000000000002-25.2Q-169.85000000000002-24.9 -170.75000000000003-23.55Q-171.65000000000003-22.2 -172.35000000000002-20.4Q-173.05-18.6 -173.05-16.1L-173.05-16.1Q-173.05-10.8 -169.05-7.5Q-165.05-4.2 -158.65000000000003-4.2L-158.65000000000003-4.2ZM-54.35000000000002-7.5Q-58.05000000000002-3.2 -63.15000000000002-0.9Q-68.25000000000003 1.4 -74.15000000000002 1.4L-74.15000000000002 1.4Q-81.05000000000001 1.4 -86.25000000000001-1.8Q-91.45000000000002-5 -94.30000000000003-10.8Q-97.15000000000002-16.6 -97.15000000000002-24.2L-97.15000000000002-24.2Q-97.15000000000002-32.2 -93.95000000000002-38.25Q-90.75000000000001-44.3 -84.90000000000002-47.65Q-79.05000000000001-51 -71.25000000000003-51L-71.25000000000003-51Q-65.75000000000003-51 -61.90000000000002-48.95Q-58.05000000000002-46.9 -56.15000000000002-43.55Q-54.25000000000002-40.2 -54.25000000000002-36.3L-54.25000000000002-36.3Q-54.25000000000002-32.1 -56.50000000000002-28.2Q-58.75000000000002-24.3 -63.05000000000002-21.85Q-67.35000000000002-19.4 -73.35000000000002-19.4L-73.35000000000002-19.4Q-76.55000000000001-19.4 -80.45000000000002-20.6Q-84.35000000000002-21.8 -84.35000000000002-24.1L-84.35000000000002-24.1Q-84.35000000000002-24.9 -83.90000000000002-25.6Q-83.45000000000002-26.3 -82.85000000000002-26.3L-82.85000000000002-26.3Q-82.55000000000001-26.3 -80.85000000000002-25.65Q-79.15000000000002-25 -76.45000000000002-25L-76.45000000000002-25Q-70.45000000000002-25 -67.10000000000002-28.4Q-63.75000000000002-31.8 -63.75000000000002-36.4L-63.75000000000002-36.4Q-63.75000000000002-40.3 -66.25000000000003-43.15Q-68.75000000000003-46 -73.25000000000003-46L-73.25000000000003-46Q-79.65000000000002-46 -83.25000000000003-40.35Q-86.85000000000002-34.7 -86.85000000000002-24.2L-86.85000000000002-24.2Q-86.85000000000002-15.3 -83.05000000000001-10.25Q-79.25000000000003-5.2 -72.05000000000001-5.2L-72.05000000000001-5.2Q-63.25000000000002-5.2 -57.45000000000002-10.9L-57.45000000000002-10.9Q-57.05000000000002-11.3 -56.55000000000002-11.3L-56.55000000000002-11.3Q-55.75000000000002-11.3 -54.85000000000002-10.35Q-53.95000000000002-9.4 -53.95000000000002-8.4L-53.95000000000002-8.4Q-53.95000000000002-7.9 -54.35000000000002-7.5L-54.35000000000002-7.5ZM-0.9500000000000135-8.8Q-0.9500000000000135-5.4  2.0499999999999865-5.4L 2.0499999999999865-5.4Q 4.5499999999999865-5.4  7.0499999999999865-7.5L 7.0499999999999865-7.5L 8.949999999999985-4.9Q 6.349999999999987-2  3.349999999999987-0.3Q 0.3499999999999872 1.4 -2.250000000000014 1.4L-2.250000000000014 1.4Q-6.350000000000014 1.4 -8.150000000000015-1.1Q-9.950000000000014-3.6 -9.950000000000014-9.2L-9.950000000000014-9.2L-9.950000000000014-67.4Q-9.950000000000014-68.6 -10.400000000000015-69.1Q-10.850000000000014-69.6 -11.950000000000014-69.6L-11.950000000000014-69.6L-16.350000000000016-69.6L-17.250000000000014-72.2Q-14.350000000000014-74.8 -10.650000000000015-76.5Q-6.9500000000000135-78.2 -4.050000000000015-78.2L-4.050000000000015-78.2Q-2.650000000000013-78.2 -1.7500000000000142-77.3Q-0.8500000000000156-76.4 -0.8500000000000156-75L-0.8500000000000156-75L-0.9500000000000135-8.8ZM 79.54999999999998-9.2Q 75.44999999999999-3.4  71.14999999999999-1Q 66.85 1.4  61.84999999999999 1.4L 61.84999999999999 1.4Q 57.04999999999999 1.4  52.94999999999999-1.35Q 48.84999999999999-4.1  46.39999999999999-9.6Q 43.94999999999999-15.1  43.94999999999999-22.9L 43.94999999999999-22.9Q 43.94999999999999-31.5  47.09999999999999-37.85Q 50.249999999999986-44.2  56.09999999999999-47.6Q 61.94999999999999-51  69.85-51L 69.85-51Q 73.74999999999999-51  80.85-49.7L 80.85-49.7Q 86.85-48.7  89.85-48.5L 89.85-48.5L 90.94999999999999-47.2L 89.74999999999999-45.4Q 89.04999999999998-44.4  88.74999999999999-43.55Q 88.44999999999999-42.7  88.44999999999999-41.5L 88.44999999999999-41.5L 88.44999999999999-8.8Q 88.44999999999999-5.7  91.44999999999999-5.7L 91.44999999999999-5.7Q 93.94999999999999-5.7  96.44999999999999-7.5L 96.44999999999999-7.5L 98.35-4.9Q 95.74999999999999-2  92.74999999999999-0.3Q 89.74999999999999 1.4  87.24999999999999 1.4L 87.24999999999999 1.4Q 83.14999999999999 1.4  81.35-1.1Q 79.54999999999998-3.6  79.54999999999998-9.2L 79.54999999999998-9.2ZM 54.44999999999999-24.8Q 54.44999999999999-15.3  57.69999999999999-10.8Q 60.94999999999999-6.3  65.85-6.3L 65.85-6.3Q 69.85-6.3  73.35-8.55Q 76.85-10.8  79.54999999999998-15.4L 79.54999999999998-15.4L 79.54999999999998-42.4Q 74.94999999999999-45.5  69.74999999999999-45.5L 69.74999999999999-45.5Q 62.44999999999999-45.5  58.44999999999999-40.05Q 54.44999999999999-34.6  54.44999999999999-24.8L 54.44999999999999-24.8ZM 158.95-45.4Q 156.25-45.4  154.54999999999998-44.75Q 152.85-44.1  152.54999999999998-44.1L 152.54999999999998-44.1Q 151.95-44.1  151.5-44.8Q 151.04999999999998-45.5  151.04999999999998-46.3L 151.04999999999998-46.3Q 151.04999999999998-47.5  151.95-48.1L 151.95-48.1Q 156.54999999999998-51  162.05-51L 162.05-51Q 168.25-51  173.1-47.9Q 177.95-44.8  180.64999999999998-39.3Q 183.35-33.8  183.35-26.8L 183.35-26.8Q 183.35-18.8  179.95-12.35Q 176.55-5.9  170.64999999999998-2.25Q 164.75 1.4  157.35 1.4L 157.35 1.4Q 151.54999999999998 1.4  146.54999999999998-0.3Q 141.54999999999998-2  138.65-4.9L 138.65-4.9L 138.65-67.4Q 138.65-68.6  138.2-69.1Q 137.75-69.6  136.65-69.6L 136.65-69.6L 132.25-69.6L 131.35-72.2Q 134.25-74.8  137.95-76.5Q 141.65-78.2  144.54999999999998-78.2L 144.54999999999998-78.2Q 145.95-78.2  146.85-77.3Q 147.75-76.4  147.75-75L 147.75-75L 147.75-7.4Q 150.15-5.7  152.6-4.95Q 155.04999999999998-4.2  158.25-4.2L 158.25-4.2Q 164.95-4.2  168.85-9.75Q 172.75-15.3  172.75-24.8L 172.75-24.8Q 172.75-30.8  171-35.5Q 169.25-40.2  166.14999999999998-42.8Q 163.05-45.4  158.95-45.4L 158.95-45.4Z"></path></svg></svg>