<svg id="Layer_1" enable-background="new 0 0 512.439 512.439" height="512" viewBox="0 0 512.439 512.439" width="512" xmlns="http://www.w3.org/2000/svg"><g><path d="m294.856 512.149c-.412 0-.825-.017-1.24-.051-6.469-.534-11.86-5.168-13.359-11.483l-51.834-218.251-216.823-50.456c-6.337-1.475-11.001-6.867-11.547-13.352-.545-6.484 3.151-12.581 9.154-15.094l482.439-202.008c5.617-2.353 12.103-1.073 16.407 3.237 4.305 4.311 5.574 10.797 3.213 16.413l-202.589 481.858c-2.353 5.599-7.828 9.187-13.821 9.187zm-231.251-298.941 180.664 42.042c5.543 1.29 9.879 5.606 11.194 11.144l43.365 182.59 170.565-405.689z"/></g></svg>